#!OML:ASF F:\VICON\USERDATA\INSTALL\rory3\rory3.ASF
:FULLY-SPECIFIED
:DEGREES
337
root -0.17158 16.7932 11.6952 12.8167 0.127668 -2.82831
lowerback -7.51581 0.342818 1.64408
upperback -5.05356 0.363392 2.64079
thorax -1.01454 0.182658 1.82182
lowerneck -16.5056 0.680782 0.547118
upperneck 42.115 1.91991 -2.30455
head 18.8056 0.538346 -0.81404
rclavicle 1.21445e-014 6.75868e-015
rhumerus -46.0963 -22.8729 -62.2058
rradius 20.7283
rwrist -0.00814283
rhand -4.2554 13.8718
rfingers 7.12502
rthumb 21.5087 -14.9539
lclavicle 1.21445e-014 6.75868e-015
lhumerus -41.0298 19.5945 66.9474
lradius 45.4155
lwrist -1.6732
lhand -3.89385 17.1234
lfingers 7.12502
lthumb 21.8559 45.9091
rfemur -37.1877 14.9063 17.9469
rtibia 26.9427
rfoot -15.4008 -19.9575
rtoes -2.28817
lfemur -2.00787 -11.6171 -21.3629
ltibia 28.3031
lfoot -18.4283 21.9231
ltoes -17.532
338
root -0.210073 16.7975 11.8314 12.8294 -0.183451 -3.29427
lowerback -7.4713 0.452327 1.98875
upperback -4.9946 0.488374 2.85019
thorax -0.98066 0.24018 1.85266
lowerneck -16.6994 0.812906 0.609871
upperneck 42.1277 2.17011 -2.4435
head 18.8795 0.626618 -0.84175
rclavicle -5.15598e-016 3.81667e-014
rhumerus -45.6621 -23.1674 -62.1206
rradius 20.1628
rwrist 0.393612
rhand -4.35008 13.9818
rfingers 7.12502
rthumb 21.4178 -14.8544
lclavicle -5.15598e-016 3.81667e-014
lhumerus -41.5672 20.1065 66.8943
lradius 44.4995
lwrist -1.37696
lhand -3.96511 18.3004
lfingers 7.12502
lthumb 21.7875 47.094
rfemur -36.7396 14.6492 18.9595
rtibia 27.0412
rfoot -15.2709 -19.1182
rtoes -3.46362
lfemur -2.95466 -10.7109 -20.7762
ltibia 30.5385
lfoot -17.4324 21.6989
ltoes -16.0906
339
root -0.23802 16.8013 11.9738 12.7083 -0.218463 -3.69453
lowerback -7.3357 0.55206 2.5138
upperback -4.94876 0.594908 2.90337
thorax -1.00653 0.281954 1.6188
lowerneck -16.777 0.87128 0.807874
upperneck 42.1085 2.24733 -2.57553
head 18.8977 0.671087 -0.925056
rclavicle -2.86995e-015 -1.39149e-014
rhumerus -45.4757 -23.9542 -61.8305
rradius 19.6064
rwrist 1.04434
rhand -4.43396 13.5882
rfingers 7.12502
rthumb 21.3372 -15.2571
lclavicle -2.86995e-015 -1.39149e-014
lhumerus -42.1323 20.5393 66.6735
lradius 43.5032
lwrist -1.28127
lhand -4.07538 18.4507
lfingers 7.12502
lthumb 21.6816 47.2566
rfemur -36.0736 14.0638 19.9821
rtibia 27.2654
rfoot -15.4332 -18.3329
rtoes -5.45455
lfemur -3.71223 -9.77911 -20.2747
ltibia 32.7068
lfoot -16.0463 21.7016
ltoes -15.2436
340
root -0.261883 16.8031 12.121 12.5807 -0.366264 -3.86941
lowerback -7.42746 0.674833 2.87963
upperback -4.80527 0.726558 2.86691
thorax -0.80442 0.3407 1.38619
lowerneck -17.0265 0.982339 1.15824
upperneck 42.2179 2.437 -2.89113
head 19.0576 0.757332 -1.10461
rclavicle 1.43249e-014 -3.57812e-014
rhumerus -45.2479 -24.0157 -62.0988
rradius 19.6318
rwrist 0.977157
rhand -4.13831 12.939
rfingers 7.12502
rthumb 21.6211 -15.8739
lclavicle 1.43249e-014 -3.57812e-014
lhumerus -42.6214 21.2412 66.3465
lradius 42.367
lwrist -1.46596
lhand -4.13406 18.1661
lfingers 7.12502
lthumb 21.6252 46.9786
rfemur -35.3515 13.5644 20.6814
rtibia 27.4502
rfoot -15.8382 -17.4365
rtoes -6.7732
lfemur -4.52136 -8.77747 -20.0928
ltibia 34.9384
lfoot -14.5945 21.9966
ltoes -13.382
341
root -0.280636 16.81 12.2779 12.2983 -0.566221 -4.1416
lowerback -7.50681 0.785524 3.33578
upperback -4.6612 0.835582 2.90952
thorax -0.607495 0.388295 1.18401
lowerneck -16.9834 1.04259 1.284
upperneck 42.3307 2.54795 -3.02106
head 19.1275 0.804102 -1.17024
rclavicle 1.36727e-014 8.34896e-015
rhumerus -45.174 -23.8142 -62.2889
rradius 19.6051
rwrist 0.830499
rhand -4.02374 12.8095
rfingers 7.12502
rthumb 21.7312 -15.9907
lclavicle 1.36727e-014 8.34896e-015
lhumerus -43.3757 21.9487 65.892
lradius 41.1906
lwrist -1.69959
lhand -4.09161 17.9353
lfingers 7.12502
lthumb 21.666 46.743
rfemur -34.3965 13.009 21.516
rtibia 27.6774
rfoot -16.0175 -16.4374
rtoes -7.63086
lfemur -5.12061 -7.8757 -19.8613
ltibia 37.0711
lfoot -13.5495 22.3384
ltoes -9.44745
342
root -0.295781 16.8164 12.433 11.8598 -0.94283 -4.28144
lowerback -7.63592 0.950709 3.68453
upperback -4.27208 1.00753 2.91621
thorax -0.127839 0.47475 1.01274
lowerneck -16.8474 1.04495 1.21151
upperneck 42.1237 2.58224 -3.04075
head 18.9586 0.805063 -1.15475
rclavicle -1.39957e-014 -2.10712e-014
rhumerus -44.7853 -24.08 -62.3521
rradius 19.4839
rwrist 0.973613
rhand -3.88954 12.6058
rfingers 7.12502
rthumb 21.86 -16.1794
lclavicle -1.39957e-014 -2.10712e-014
lhumerus -43.9821 22.8328 65.5602
lradius 40.2756
lwrist -1.94816
lhand -3.65137 18.1141
lfingers 7.12502
lthumb 22.0887 46.8724
rfemur -33.2773 12.6718 22.1312
rtibia 27.8165
rfoot -16.1769 -15.6268
rtoes -8.64034
lfemur -5.57906 -6.94022 -19.8531
ltibia 39.2118
lfoot -12.4129 22.9819
ltoes -4.27479
343
root -0.319245 16.8222 12.5717 11.6615 -1.23141 -4.47656
lowerback -7.05719 1.03767 3.90692
upperback -4.54013 1.15765 3.02092
thorax -0.72302 0.538375 0.994886
lowerneck -16.3735 1.17562 1.40431
upperneck 42.2535 2.85024 -3.31966
head 18.9307 0.908772 -1.27337
rclavicle -1.88845e-015 -6.36111e-015
rhumerus -45.0246 -23.1741 -62.6697
rradius 19.7764
rwrist 0.374245
rhand -3.75274 12.1101
rfingers 7.12502
rthumb 21.9914 -16.6597
lclavicle -1.88845e-015 -6.36111e-015
lhumerus -45.4388 23.0428 65.1717
lradius 39.7086
lwrist -1.57044
lhand -3.47502 18.7384
lfingers 7.12502
lthumb 22.258 47.4766
rfemur -32.4443 12.6675 22.645
rtibia 27.7858
rfoot -16.4633 -15.2769
rtoes -9.51334
lfemur -6.51632 -6.00801 -19.6327
ltibia 41.4455
lfoot -11.216 23.6259
ltoes 1.09222
344
root -0.350147 16.8302 12.7025 11.6528 -1.3074 -4.78908
lowerback -6.80137 1.10064 4.18088
upperback -4.68356 1.25046 3.14668
thorax -1.01108 0.576016 0.971849
lowerneck -16.3584 1.26059 1.64909
upperneck 42.3774 3.03039 -3.60993
head 19.028 0.980465 -1.42532
rclavicle -4.8578e-015 -1.19271e-014
rhumerus -44.9425 -22.7286 -62.9386
rradius 19.7478
rwrist -0.0657478
rhand -3.70979 11.8789
rfingers 7.12502
rthumb 22.0326 -16.8861
lclavicle -4.8578e-015 -1.19271e-014
lhumerus -46.2927 23.9674 64.5148
lradius 38.2774
lwrist -2.00923
lhand -3.18747 18.3924
lfingers 7.12502
lthumb 22.534 47.0974
rfemur -31.8528 12.8368 23.2155
rtibia 27.7464
rfoot -16.6711 -15.3772
rtoes -11.0634
lfemur -7.79034 -5.18908 -19.163
ltibia 43.7176
lfoot -10.3776 24.1102
ltoes 4.73949
345
root -0.376356 16.8383 12.8299 11.6005 -1.29387 -5.15785
lowerback -6.55609 1.14787 4.60213
upperback -4.71418 1.31079 3.2341
thorax -1.17323 0.59522 0.825925
lowerneck -16.4188 1.2922 1.81034
upperneck 42.3402 3.08627 -3.76243
head 19.033 1.00753 -1.51644
rclavicle -4.84538e-016 4.05521e-014
rhumerus -44.7693 -22.6637 -63.0599
rradius 19.5399
rwrist -0.138498
rhand -3.54022 12.4635
rfingers 7.12502
rthumb 22.1954 -16.2822
lclavicle -4.84538e-016 4.05521e-014
lhumerus -46.9819 25.1461 63.6129
lradius 36.5997
lwrist -2.61455
lhand -2.66009 17.7318
lfingers 7.12502
lthumb 23.0402 46.3746
rfemur -31.1793 12.7877 23.8781
rtibia 27.6334
rfoot -16.931 -15.2066
rtoes -11.3775
lfemur -9.05278 -4.39184 -18.6486
ltibia 46.0207
lfoot -10.1753 24.1776
ltoes 6.25525
346
root -0.391556 16.848 12.9572 11.5624 -1.08351 -5.11863
lowerback -6.26659 1.11763 4.79121
upperback -4.89244 1.29286 3.17935
thorax -1.51517 0.573939 0.656467
lowerneck -16.0825 1.28592 1.76343
upperneck 42.3612 3.06783 -3.69114
head 18.9467 1.00709 -1.47724
rclavicle 4.98204e-015 9.54166e-015
rhumerus -44.9145 -22.3239 -63.2352
rradius 19.6868
rwrist -0.383496
rhand -3.25854 12.7826
rfingers 7.12502
rthumb 22.4658 -15.9307
lclavicle 4.98204e-015 9.54166e-015
lhumerus -48.0302 25.3793 63.2099
lradius 35.8558
lwrist -2.34404
lhand -2.13508 18.5775
lfingers 7.12502
lthumb 23.5438 47.1565
rfemur -30.4968 12.0303 24.194
rtibia 27.5258
rfoot -17.0349 -14.7996
rtoes -12.764
lfemur -10.322 -3.89629 -18.6354
ltibia 48.216
lfoot -10.2023 24.0763
ltoes 6.61717
